<?xml version="1.0" standalone="no"?><!DOCTYPE svg PUBLIC "-//W3C//DTD SVG 1.1//EN" "http://www.w3.org/Graphics/SVG/1.1/DTD/svg11.dtd"><svg t="1725178952109" class="icon" viewBox="0 0 1024 1024" version="1.1" xmlns="http://www.w3.org/2000/svg" p-id="15623" width="32" height="32" xmlns:xlink="http://www.w3.org/1999/xlink"><path d="M869.1 66H157.2C106.9 66 66 106.9 66 157.2v711.9c0 50.3 40.9 91.2 91.2 91.2h711.9c50.3 0 91.2-40.9 91.2-91.2V157.2c0-50.3-40.9-91.2-91.2-91.2z m27.2 803.1c0 15-12.2 27.2-27.2 27.2H157.2c-15 0-27.2-12.2-27.2-27.2V157.2c0-15 12.2-27.2 27.2-27.2h711.9c15 0 27.2 12.2 27.2 27.2v711.9z" fill="#350619" p-id="15624"></path><path d="M352 320h380.4c17.7 0 32-14.3 32-32s-14.3-32-32-32H352c-17.7 0-32 14.3-32 32s14.3 32 32 32z" fill="#350619" p-id="15625"></path><path d="M224 288m-32 0a32 32 0 1 0 64 0 32 32 0 1 0-64 0Z" fill="#350619" p-id="15626"></path><path d="M828.4 479.9c0-17.7-14.3-32-32-32H415.9c-17.7 0-32 14.3-32 32s14.3 32 32 32h380.4c17.7 0 32.1-14.3 32.1-32z" fill="#350619" p-id="15627"></path><path d="M288 479.9m-32 0a32 32 0 1 0 64 0 32 32 0 1 0-64 0Z" fill="#350619" p-id="15628"></path><path d="M800.1 639.9H479.9c-17.7 0-32 14.3-32 32s14.3 32 32 32h320.2c17.7 0 32-14.3 32-32 0.1-17.7-14.3-32-32-32z" fill="#350619" p-id="15629"></path><path d="M352 671.9m-32 0a32 32 0 1 0 64 0 32 32 0 1 0-64 0Z" fill="#350619" p-id="15630"></path></svg>