<?xml version="1.0" standalone="no"?><!DOCTYPE svg PUBLIC "-//W3C//DTD SVG 1.1//EN" "http://www.w3.org/Graphics/SVG/1.1/DTD/svg11.dtd"><svg t="1725177388783" class="icon" viewBox="0 0 1024 1024" version="1.1" xmlns="http://www.w3.org/2000/svg" p-id="14582" width="32" height="32" xmlns:xlink="http://www.w3.org/1999/xlink"><path d="M859.406295 150.688839h-261.437099l139.062286-100.124846c11.124983-11.124983 16.687474-22.249966 5.562492-38.93744-11.124983-11.124983-27.812457-16.687474-38.93744-5.562492L514.531824 139.563857 319.844622 6.064061c-11.124983-5.562491-27.812457-5.562491-33.374948 5.562492-11.124983 16.687474-5.562491 27.812457 5.562491 38.93744l139.062287 100.124846H164.094861C75.094998 150.688839 2.782609 223.001229 2.782609 312.001092v550.686655c0 88.999863 72.312389 161.312253 161.312252 161.312253h695.311434c88.999863 0 161.312253-72.312389 161.312252-161.312253V312.001092c0-88.999863-72.312389-161.312253-161.312252-161.312253z m111.249829 711.998908c0 55.624915-50.062423 105.687338-111.249829 105.687338H164.094861c-61.187406 0-105.687338-50.062423-105.687338-105.687338V312.001092c0-61.187406 44.499932-111.249829 105.687338-111.249829h695.311434c61.187406 0 111.249829 50.062423 111.249829 111.249829v550.686655z" p-id="14583"></path><path d="M714.781517 540.063242L425.53196 373.188498c-11.124983-5.562491-22.249966-11.124983-27.812457-11.124983-27.812457 0-55.624915 22.249966-55.624915 55.624915v333.749488c0 33.374949 27.812457 55.624915 55.624915 55.624915 5.562491 0 16.687474 0 27.812457-5.562492l289.249557-166.874744c33.374949-22.249966 33.374949-72.312389 0-94.562355z m-317.062014 211.374676V417.68843l289.249556 166.874744-289.249556 166.874744z" p-id="14584"></path></svg>