<?xml version="1.0" encoding="utf-8"?>
<svg version="1.1" xmlns:xlink="http://www.w3.org/1999/xlink" width="25px" height="26px" xmlns="http://www.w3.org/2000/svg">
  <g>
    <path d="M 0 18.4600655871762  C -5.11641320696518E-05 15.7907137537002  1.19889656950084 13.5373443111553  3.59674079127117 11.7000069938932  C 3.51170977620616 11.509344589454  3.46919436099909 11.2579937938912  3.46919436099909 10.9459557364271  C 3.46919436099909 10.7553193890969  3.52019745579145 10.51262067081  3.62222956797518 10.217962947908  C 3.72428724536917 9.92325311078805  3.84329507411225 9.70661156223549  3.97935492191778 9.56795983951107  C 3.96237940341138 9.35996922686994  3.99638156042084 9.10861841916494  4.08141257548585 8.81390858204494  C 4.16644359055086 8.51925088342734  4.27696335849396 8.31123456580028  4.4130232301254 8.18996316549584  C 4.4130232301254 6.83791985775497  4.84666609225237 5.44259493911129  5.71400299457864 4.00393663532765  C 6.58131435552058 2.56527833154401  7.61017478175154 1.55127853747531  8.80058360614582 0.961937058846737  C 10.1270777839911 0.320663057688261  11.6661494726947 0  13.4177476847917 0  C 14.6932642139252 0  15.9601643379938 0.268704502333689  17.2186030207696 0.806035311389645  C 17.6777858853248 0.996671658719831  18.1029666152073 1.22204259378093  18.4940940085188 1.48199178606099  C 18.885272508425 1.74201914966812  19.2253717182523 2.01932249797954  19.5144669755543 2.31403233509954  C 19.8035622090303 2.60871611511052  20.0586813495622 2.93800451300386  20.2797722422152 3.30202718293155  C 20.5008631348681 3.66602379575022  20.7049261560267 4.02131704274285  20.8919893130578 4.3680115166108  C 21.0790013277555 4.71467993336972  21.2320883918426 5.12203615842782  21.3511471603989 5.59000202045803  C 21.4701803756578 6.0580199967063  21.5892389416937 6.49135520802947  21.7082721331268 6.89000823725199  C 21.8273053483857 7.28871338069255  21.9293629543019 7.765382414274  22.0144195524466 8.32001538656503  C 22.0144195524466 8.32001538656503  22.0399334893203 8.39800584378632  22.0399334893203 8.39800584378632  C 22.5670951771401 9.19539009784277  22.8307282951146 9.91467966624185  22.8307282951146 10.5560057816184  C 22.8307282951146 10.694683573594  22.7882125225187 10.8940235295937  22.7031814836278 11.1540248360918  C 22.6181504685628 11.4140000854809  22.5756865173391 11.5959856061793  22.5756865173391 11.7000069938932  C 22.5756865173391 11.7000069938932  22.5756865173391 11.7173346374839  22.5756865173391 11.7519910478167  C 22.5756865173391 11.7866735334718  22.5926618675749 11.8126528809666  22.6266640707471 11.830007149313  C 22.6606918301948 11.8473092928171  22.6691787443725 11.8559607098622  22.6521520850217 11.8559607098622  C 23.3834291276295 12.9652787200936  23.9616717256906 14.0052825861624  24.386826842711 14.9759488979537  C 24.8120075011157 15.9466152097451  25.0160206173995 16.9519649178546  24.9990195158134 17.9919441110224  C 24.9990195158134 18.407951417698  24.905526219592 18.8933227971628  24.7184119559662 19.4479296880604  C 24.531348822761 20.0026147745695  24.2677412342579 20.2799714027478  23.9276171501719 20.2799714027478  C 23.8425861351069 20.2799714027478  23.7490684471017 20.2453142153158  23.6469851925845 20.175975319328  C 23.5449530804007 20.1066364233402  23.4599211659073 20.0200208626863  23.3918656470119 19.9159734542898  C 23.3238612942759 19.8119520908602  23.2303180231909 19.690680909115  23.1112336894245 19.5519770600303  C 22.9922260512887 19.4132732109457  22.9157076615454 19.2832464763033  22.8816799259236 19.1619229739229  C 22.8476777495556 19.0406515736185  22.7881606534948 18.9105734532886  22.7031296384298 18.7719217305641  C 22.6180986233647 18.6332960649488  22.575608749542 18.5552805371702  22.575608749542 18.5379262688237  C 22.5585820901913 18.5206241253197  22.5416075351454 18.5119462869003  22.5245808757947 18.5119462869003  C 22.5245808757947 18.5119462869003  22.4480878606543 18.5639824064731  22.4480878606543 18.5639824064731  C 21.8868984729515 20.0546252498673  21.2576534948757 21.1379384109994  20.5604041998026 21.8139730812822  C 20.7644428827858 22.0045833836455  21.0620774444813 22.1866214071115  21.4532303553513 22.3599816604578  C 21.8443577486628 22.5332898117283  22.1674808488032 22.7326022049892  22.4225739237806 22.9579470950835  C 22.6776925639683 23.1832398466753  22.8477286298039 23.5039299814154  22.9327596448689 23.9199633209157  C 22.9157329855182 23.9546197312484  22.8987584304724 24.0326088589015  22.8817317711216 24.1539323612818  C 22.8647562526152 24.2752298186953  22.8307277352055 24.3618974996383  22.7796988965085 24.41393422632  C 22.1674806343699 25.3499701788165  20.7304661703678 25.8179613937096  18.4686563145835 25.8179613937096  C 17.9754712438779 25.8179613937096  17.4567979682904 25.7746279235744  16.9126096121851 25.6879868825648  C 16.3684212560798 25.6013197905172  15.900750670244 25.5060284146339  15.5095977355481 25.4019288798772  C 15.1184703422366 25.2979335735566  14.6252600398836 25.1505787885606  14.0300684460305 24.9599163841214  C 13.8770074951497 24.9079578044824  13.7664614233929 24.8733009904223  13.6984314875772 24.8559467220758  C 13.562397193069 24.8212642364208  13.3413057524199 24.795284888926  13.0352094158687 24.7779306205795  C 12.7290875141072 24.7606284770755  12.5420505536732 24.7606284770755  12.4739950586037 24.7779306205795  C 12.0828676652921 25.2113182375329  11.4791883501583 25.5232783907978  10.6628547332318 25.7139668644882  C 9.84657219907385 25.9046292689274  9.04731638085324 26  8.26501051146142 26  C 7.92488640354954 26  7.59327601099509 25.9913221615806  7.27015300615842 25.9740200180765  C 6.94703000132175 25.95666574973  6.5048734714892 25.9133055152041  5.94368408378648 25.8439926641831  C 5.38246910704759 25.7746798435176  4.90631079993115 25.6793631329847  4.51515788906116 25.5579875042442  C 4.12403049574958 25.4366379326126  3.76687964807449 25.2372971995137  3.44378220844807 24.9599676726715  C 3.1206592036114 24.6826381458292  2.96762345012831 24.3793293170254  2.9846245517144 24.0499891206106  C 2.9846245517144 23.65128397717  3.03565356910578 23.3653292558288  3.13768568128951 23.1919689781982  C 3.23971779347325 23.0186868961789  3.43529451099335 22.7759360758162  3.72438976829527 22.4639761896792  C 3.82642188047901 22.4466219213327  4.01348476351209 22.3859857324579  4.28560450677498 22.2819904261373  C 4.55769868482761 22.1780211647836  4.79579096646677 22.1260110658932  4.99985521466016 22.1260110658932  C 5.03388297410787 22.1260110658932  5.1018873268439 22.1087083501892  5.20391943902764 22.0739998134962  C 5.22092054061372 22.0566976699921  5.22943375711598 22.0393435731539  5.22943375711598 22.0220414038477  C 5.22943375711598 22.0220414038477  5.20391943902764 21.9700052842749  5.20391943902764 21.9700052842749  C 4.74476216350865 21.8660360229211  4.23457567999094 21.3633611081555  3.67338629228822 20.4620597433899  C 3.11217131554933 19.5606801830128  2.76353389732065 18.7980315851988  2.62749957898649 18.1740075844886  C 2.62749957898649 18.1740075844886  2.55095624350677 18.1480276025651  2.55095624350677 18.1480276025651  C 2.51692848405907 18.1480276025651  2.45743739398801 18.243293716652  2.37238079584331 18.4340343167026  C 2.20234430709762 18.8326873702095  1.94725131551091 19.1880848456382  1.60710164238878 19.5000186503819  C 1.2669775344769 19.8120306264526  0.901364602209179 19.9940165478427  0.510211691339186 20.0460272295575  C 0.510211691339186 20.0460272295575  0.484697277947169 20.0460272295575  0.484697277947169 20.0460272295575  C 0.450669518499465 20.0460272295575  0.425180655426498 20.0287252575617  0.408179579155449 19.994068819909  C 0.391178477569362 19.9593342352137  0.365664098427102 19.9333548877189  0.331636338979397 19.9160527184127  C 0.110571011536715 19.3786958765321  0 18.8934010899116  0 18.4600655871762  Z " fill-rule="nonzero" fill="#0081de" stroke="none" />
  </g>
</svg>