<?xml version="1.0" standalone="no"?><!DOCTYPE svg PUBLIC "-//W3C//DTD SVG 1.1//EN" "http://www.w3.org/Graphics/SVG/1.1/DTD/svg11.dtd"><svg t="1725285999718" class="icon" viewBox="0 0 1024 1024" version="1.1" xmlns="http://www.w3.org/2000/svg" p-id="4269" xmlns:xlink="http://www.w3.org/1999/xlink" width="32" height="32"><path d="M792.49 585.003a38.827 38.827 0 0 0 38.315-38.315c0-21.248-17.024-38.315-38.314-38.315s-38.315 17.067-38.315 38.315c0 21.333 17.067 38.315 38.315 38.315z m-188.8 0a38.827 38.827 0 0 0 38.315-38.315 38.203 38.203 0 0 0-38.314-38.315c-21.334 0-38.315 17.067-38.315 38.315 0 21.333 17.024 38.315 38.315 38.315z m280.193 215.04a14.805 14.805 0 0 0-7.339 15.786c0 2.048 0 4.139 1.067 6.272 4.181 17.792 12.544 46.123 12.544 47.19 0 3.114 1.066 5.205 1.066 7.338a9.387 9.387 0 0 1-9.429 9.387c-2.133 0-3.157-1.024-5.248-2.048l-61.824-35.67a34.09 34.09 0 0 0-14.677-4.18c-3.115 0-6.272 0-8.363 1.023-29.355 8.406-59.733 12.587-92.203 12.587-156.16 0-281.898-104.832-281.898-234.88 0-130.005 125.738-234.88 281.898-234.88 156.118 0 281.856 104.875 281.856 234.88 0 70.272-37.717 134.23-97.45 177.237zM711.38 345.557a388.48 388.48 0 0 0-11.946-0.213c-178.091 0-324.523 122.027-324.523 277.547 0 23.637 3.413 46.506 9.728 68.266h-3.797a425.088 425.088 0 0 1-110.251-15.701c-3.157-1.067-6.315-1.067-9.472-1.067a35.499 35.499 0 0 0-17.835 5.248l-74.581 42.88c-2.133 1.067-4.224 2.134-6.315 2.134a11.648 11.648 0 0 1-11.52-11.52c0-3.158 1.024-5.248 2.091-8.406 1.024-1.024 10.496-35.584 15.744-56.49 0-2.134 1.024-5.248 1.024-7.339a23.723 23.723 0 0 0-9.43-18.859C87.809 570.71 42.668 494.336 42.668 409.515c0-155.862 152.32-281.515 339.2-281.515 160.64 0 295.68 92.544 329.514 217.515z m-219.904 17.835c24.448 0 43.776-20.352 43.776-43.776 0-24.448-19.328-43.776-43.776-43.776s-43.776 19.328-43.776 43.776 19.328 43.776 43.776 43.776z m-224.426 0c24.448 0 43.818-20.352 43.818-43.776 0-24.448-19.37-43.776-43.818-43.776-24.406 0-43.776 19.328-43.776 43.776s19.37 43.776 43.776 43.776z" fill="#00c802" p-id="4270"></path></svg>