<?xml version="1.0" standalone="no"?><!DOCTYPE svg PUBLIC "-//W3C//DTD SVG 1.1//EN" "http://www.w3.org/Graphics/SVG/1.1/DTD/svg11.dtd"><svg t="1725109464114" class="icon" viewBox="0 0 1024 1024" version="1.1" xmlns="http://www.w3.org/2000/svg" p-id="4272" width="32" height="32" xmlns:xlink="http://www.w3.org/1999/xlink"><path d="M511.916 34.987c-194.753 0-353.196 158.046-353.196 352.309 0 25.338 2.716 50.645 8.071 75.219 2.431 11.16 13.267 45.648 14.424 48.714 18.978 49.515 46.993 91.731 82.336 126.526l-50.121-62.033c4.143 6.517 252.836 371.253 252.836 371.253 10.070 14.644 26.733 24.123 45.61 24.123 0.015 0 0.029-0 0.044-0 0.010 0 0.025 0 0.039 0 18.878 0 35.542-9.48 45.491-23.939s263.926-389.896 265.122-392.098c19.718-35.585 33.739-77.143 39.569-121.284-23.867 88.45-9.101 47.089-5.095 28.733 5.127-22.593 8.065-48.538 8.065-75.17 0-0.016-0-0.031-0-0.047 0-194.261-158.444-352.307-353.196-352.307zM817.025 453.788c-3.533 16.189-16.574 52.718-17.601 55.128-3.903 9.161-14.973 30.454-16.075 32.379-2.21 3.865-259.631 382.622-259.631 382.622-3.824 5.614-9.525 6.222-11.801 6.222s-7.975-0.608-11.796-6.218c0 0-248.871-365.001-252.799-371.237l-0.344-0.549c-22.738-35.745-38.608-78.067-44.655-123.494 16.213 65.466 6.634 34.988 4.49 25.153-4.533-19.96-7.131-42.882-7.131-66.41 0-0.030 0-0.061 0-0.091-0.002-171.675 140.067-311.347 312.234-311.347s312.236 139.672 312.236 311.349c0 22.403-2.398 44.777-7.127 66.492z" fill="#2E333A" p-id="4273"></path><path d="M511.916 237.968c-39.969 0-77.55 15.526-105.814 43.717-28.283 28.205-43.858 65.712-43.858 105.611 0 10.881 1.153 21.688 3.428 32.123 3.631 16.667 10.131 32.514 19.327 47.116 11.081 17.378 25.052 31.876 41.385 43.209l-35.374-34.397c13.699 18.663 31.756 34.126 52.224 44.714 21.254 10.996 44.364 16.572 68.686 16.572 24.312 0 47.417-5.577 68.676-16.574 29.47-15.53 52.678-39.575 66.758-68.842l-14.435 24.003c11.108-14.94 19.502-32.615 24.048-51.779-8.938 28.503-2.432 12.637 1.204-4.054 2.176-9.61 3.422-20.646 3.422-31.974 0-0.042-0-0.083-0-0.125 0-39.887-15.573-77.392-43.856-105.601-28.275-28.193-65.853-43.721-105.82-43.721zM618.146 410.668c-3.955 17.708-11.857 33.164-22.756 45.994 1.231-0.061-8.305 9.854-19.463 17.595l23.882-23.158c-9.986 13.605-23.142 24.873-38.040 32.584-15.383 7.956-32.154 11.991-49.852 11.991-17.707 0-34.484-4.035-49.865-11.991-14.891-7.703-28.039-18.964-38.021-32.567l-16.511 12.118 16.388-12.284c-1.479-2.015-5.671-8.542-6.343-9.699-7.723-13.065-12.775-28.564-14.007-45.126 0.553 7.579-0.354-0.456-0.354-8.701 0-0.044 0-0.088 0-0.131-0-28.929 11.301-56.137 31.822-76.603 20.535-20.48 47.841-31.758 76.89-31.758 29.047 0 56.355 11.28 76.89 31.762 20.523 20.468 31.822 47.673 31.822 76.605 0 7.948-0.836 15.811-2.482 23.37z" fill="#2E333A" p-id="4274"></path></svg>