<?xml version="1.0" standalone="no"?><!DOCTYPE svg PUBLIC "-//W3C//DTD SVG 1.1//EN" "http://www.w3.org/Graphics/SVG/1.1/DTD/svg11.dtd"><svg t="1725110836911" class="icon" viewBox="0 0 1024 1024" version="1.1" xmlns="http://www.w3.org/2000/svg" p-id="24518" width="32" height="32" xmlns:xlink="http://www.w3.org/1999/xlink"><path d="M113.768909 190.539233c-26.31836 0-47.653228 21.331798-47.653228 47.653228 0 26.317336 21.335892 47.652205 47.653228 47.652205 26.316313 0 47.652205-21.335892 47.652205-47.652205C161.421114 211.871032 140.086245 190.539233 113.768909 190.539233M113.768909 464.272071c-26.31836 0-47.653228 21.334868-47.653228 47.651181 0 26.31836 21.335892 47.653228 47.653228 47.653228 26.316313 0 47.652205-21.334868 47.652205-47.653228C161.421114 485.606939 140.086245 464.272071 113.768909 464.272071M113.768909 738.155334c-26.31836 0-47.653228 21.334868-47.653228 47.652205s21.335892 47.655274 47.653228 47.655274c26.316313 0 47.652205-21.337938 47.652205-47.655274S140.086245 738.155334 113.768909 738.155334M942.925659 210.488548 301.965799 210.488548c-7.695247 0-13.933309 6.238062-13.933309 13.933309l0 27.868665c0 7.695247 6.238062 13.931263 13.933309 13.931263l640.958836 0c7.694224 0 13.932286-6.237039 13.932286-13.931263l0-27.868665C956.858968 216.72661 950.619882 210.488548 942.925659 210.488548M943.948963 479.171379 302.989103 479.171379c-7.695247 0-13.933309 6.237039-13.933309 13.932286l0 27.867642c0 7.696271 6.238062 13.933309 13.933309 13.933309l640.958836 0c7.694224 0 13.932286-6.240109 13.932286-13.933309l0-27.867642C957.882272 485.408418 951.643187 479.171379 943.948963 479.171379M720.868657 754.77584 302.989103 754.77584c-7.695247 0-13.933309 6.241132-13.933309 13.935356l0 27.865595c0 7.696271 6.238062 13.935356 13.933309 13.935356l417.878531 0c7.694224 0 13.932286-6.239085 13.932286-13.935356l0-27.865595C734.801967 761.016972 728.562881 754.77584 720.868657 754.77584" p-id="24519"></path></svg>